<?xml version="1.0" encoding="utf-8"?>
<!-- Generator: Adobe Illustrator 23.0.1, SVG Export Plug-In . SVG Version: 6.00 Build 0)  -->
<svg version="1.1" id="Layer_1" xmlns="http://www.w3.org/2000/svg" xmlns:xlink="http://www.w3.org/1999/xlink" x="0px" y="0px"
	 viewBox="0 0 227.39 88.56" style="enable-background:new 0 0 227.39 88.56;" xml:space="preserve">
<style type="text/css">
	.st0{fill:#003C71;}
	.st1{fill:#0077CA;}
	.st2{fill:#57C1E8;}
</style>
<g>
	<g>
		<g>
			<g>
				<g>
					<path class="st0" d="M5.23,44.28c0-21.54,17.53-39.06,39.09-39.06c0.91,0,1.81,0.04,2.7,0.1V0.09C46.13,0.04,45.23,0,44.32,0
						C19.88,0,0,19.86,0,44.28C0,65.93,15.63,83.99,36.21,87.8v-5.32C18.53,78.74,5.23,63.04,5.23,44.28z"/>
				</g>
			</g>
			<path class="st1" d="M88.63,44.28C88.63,22.63,73,4.57,52.43,0.76v5.32c17.68,3.74,30.98,19.45,30.98,38.2
				c0,0.21-0.01,0.41-0.02,0.61h5.23C88.62,44.69,88.63,44.49,88.63,44.28z"/>
			<g>
				<g>
					<path class="st1" d="M82.94,50.29C80.17,68.12,65.3,81.99,47,83.23l0.02-10.48c-0.81,0.08-1.63,0.13-2.46,0.13
						c-0.08,0-0.16,0-0.24,0c-15.56,0-28.29-12.48-28.62-28.01h-5.23c0.31,17.44,13.98,31.74,31.13,33.11l0.01,10.48
						c0.9,0.05,1.79,0.09,2.7,0.09c22.39,0,40.95-16.69,43.9-38.27H82.94z"/>
					<path class="st2" d="M44.32,10.45h-0.29C27.09,10.59,13.13,23.21,10.8,39.48h5.3c2.28-13.39,13.91-23.68,27.98-23.8
						c0.08,0,0.16,0,0.25,0c15.67,0,28.49,12.67,28.63,28.36c0.11,13.04-8.58,24.14-20.52,27.67v5.41
						c14.88-3.67,25.89-17.17,25.75-33.13C78.02,25.5,62.83,10.45,44.32,10.45z"/>
				</g>
			</g>
		</g>
		<g>
			<path class="st0" d="M42.6,52.74v13.47c-7.45,0-13.49-6.03-13.49-13.47H42.6z"/>
			<path class="st0" d="M42.6,35.82H29.12c0-7.44,6.04-13.47,13.48-13.47V35.82z"/>
			<rect x="29.12" y="37.54" class="st1" width="13.48" height="13.47"/>
			<path class="st1" d="M46.03,52.74v13.47c7.45,0,13.49-6.03,13.49-13.47H46.03z"/>
			<path class="st1" d="M59.52,35.82H46.04c0-7.44,6.04-13.47,13.48-13.47V35.82z"/>
			<rect x="46.04" y="37.54" class="st2" width="13.48" height="13.47"/>
		</g>
	</g>
	<g>
		<g>
			<path class="st0" d="M102.43,47.14l0.71-2.56c0.6,0.31,1.29,0.58,2.05,0.82c0.77,0.24,1.47,0.35,2.1,0.35
				c0.98,0,1.72-0.15,2.22-0.46c0.5-0.31,0.76-0.76,0.76-1.34c0-0.41-0.2-0.78-0.6-1.11c-0.4-0.33-1.01-0.73-1.84-1.18l-0.73-0.44
				c-1.09-0.65-1.96-1.21-2.6-1.68c-0.64-0.47-1.2-1.03-1.66-1.67c-0.46-0.64-0.7-1.36-0.7-2.16c0-0.85,0.23-1.61,0.68-2.28
				c0.45-0.67,1.11-1.2,1.97-1.59c0.85-0.38,1.88-0.57,3.06-0.57c1.4,0,2.96,0.41,4.69,1.24l-1.05,2.54
				c-0.67-0.33-1.27-0.58-1.82-0.76c-0.55-0.18-1.14-0.27-1.77-0.27c-0.73,0-1.33,0.14-1.79,0.43c-0.46,0.28-0.7,0.7-0.7,1.26
				c0,0.47,0.18,0.87,0.55,1.18c0.37,0.32,0.96,0.72,1.79,1.21l0.78,0.44l0.71,0.42c0.96,0.55,1.73,1.04,2.3,1.45
				c0.57,0.41,1.05,0.92,1.43,1.51s0.57,1.29,0.57,2.09c0,0.89-0.24,1.68-0.72,2.37c-0.48,0.68-1.19,1.22-2.12,1.61
				c-0.94,0.39-2.05,0.59-3.36,0.59c-0.68,0-1.53-0.15-2.55-0.45C103.77,47.81,102.98,47.48,102.43,47.14z"/>
			<path class="st0" d="M130.78,34.14h-5.69v14.1h-3.2v-14.1h-5.05v-2.49h13.43L130.78,34.14z"/>
			<path class="st0" d="M139.47,31.65v10.32c0,1.32,0.33,2.31,0.99,2.96c0.66,0.66,1.54,0.99,2.65,0.99c1.11,0,1.99-0.34,2.65-1.01
				c0.66-0.67,0.99-1.65,0.99-2.94V31.65h3.2v10.56c0,1.2-0.28,2.28-0.85,3.23c-0.57,0.95-1.38,1.7-2.42,2.25
				c-1.04,0.54-2.25,0.82-3.61,0.82c-1.35,0-2.54-0.27-3.56-0.82c-1.03-0.55-1.81-1.3-2.37-2.26c-0.55-0.96-0.83-2.03-0.83-3.22
				l-0.02-10.56H139.47z"/>
			<path class="st0" d="M163.08,48.24h-6.3V31.65h6.3c1.68,0,3.09,0.35,4.24,1.04c1.15,0.69,2,1.65,2.56,2.88
				c0.56,1.23,0.84,2.66,0.84,4.28c0,2.62-0.66,4.66-1.99,6.14C167.4,47.45,165.52,48.21,163.08,48.24z M163.2,34.33h-3.27v11.25
				h3.1c1.4,0,2.49-0.46,3.26-1.38c0.77-0.92,1.16-2.37,1.16-4.35c0-1.77-0.35-3.13-1.05-4.09C165.7,34.81,164.63,34.33,163.2,34.33
				z"/>
			<path class="st0" d="M176.58,48.24V31.65h9.91l0.49,2.49h-7.25v4.46h5.42l0.51,2.51h-5.93v4.66h7.96l0.51,2.46H176.58z"/>
			<path class="st0" d="M193.69,48.24V31.65h3.15l7.69,11.08V31.65h3.17v16.59h-3.17l-7.69-11.1v11.1H193.69z"/>
			<path class="st0" d="M227.39,34.14h-5.69v14.1h-3.2v-14.1h-5.05v-2.49h13.43L227.39,34.14z"/>
		</g>
		<g>
			<path class="st0" d="M105.33,57.49v10.32c0,1.32,0.33,2.31,0.99,2.96c0.66,0.66,1.54,0.99,2.65,0.99c1.11,0,1.99-0.34,2.65-1.01
				c0.66-0.67,0.99-1.65,0.99-2.94V57.49h3.2v10.56c0,1.2-0.28,2.28-0.85,3.23c-0.57,0.95-1.38,1.7-2.42,2.24
				c-1.04,0.55-2.25,0.82-3.61,0.82c-1.35,0-2.54-0.27-3.56-0.82c-1.03-0.54-1.81-1.3-2.37-2.26c-0.55-0.96-0.83-2.03-0.83-3.22
				l-0.02-10.56H105.33z"/>
			<path class="st0" d="M122.64,74.08V57.49h3.15l7.69,11.08V57.49h3.17v16.59h-3.17l-7.69-11.1v11.1H122.64z"/>
			<path class="st0" d="M144.23,74.08V57.49h3.15v16.59H144.23z"/>
			<path class="st0" d="M161.86,57.1c1.68,0,3.13,0.38,4.37,1.13c1.24,0.76,2.18,1.79,2.82,3.09c0.64,1.3,0.96,2.76,0.96,4.37
				c0,1.69-0.34,3.19-1.03,4.5c-0.68,1.31-1.64,2.33-2.87,3.07c-1.23,0.74-2.65,1.13-4.26,1.16c-1.68,0-3.13-0.38-4.36-1.13
				c-1.23-0.76-2.16-1.78-2.81-3.07c-0.64-1.29-0.96-2.74-0.96-4.35c0-1.67,0.34-3.17,1.01-4.49c0.68-1.32,1.63-2.35,2.87-3.1
				C158.84,57.52,160.26,57.13,161.86,57.1z M157.02,65.83c0,1.15,0.19,2.18,0.59,3.09c0.39,0.9,0.95,1.6,1.67,2.1
				c0.72,0.5,1.58,0.74,2.55,0.74c0.91,0,1.74-0.22,2.48-0.67c0.74-0.45,1.33-1.13,1.76-2.05c0.43-0.92,0.65-2.04,0.65-3.35
				c0-1.14-0.2-2.15-0.59-3.05s-0.95-1.59-1.68-2.1c-0.73-0.5-1.58-0.76-2.54-0.76c-0.88,0-1.69,0.25-2.43,0.74
				c-0.74,0.5-1.34,1.2-1.78,2.12C157.24,63.57,157.02,64.63,157.02,65.83z"/>
			<path class="st0" d="M175.87,74.08V57.49h3.15l7.69,11.08V57.49h3.17v16.59h-3.17l-7.69-11.1v11.1H175.87z"/>
		</g>
		<g>
			<path class="st1" d="M106.29,14.14c0.86,0,1.6,0.19,2.22,0.56c0.63,0.37,1.1,0.89,1.43,1.53c0.33,0.65,0.5,1.36,0.5,2.15
				c0,0.84-0.18,1.59-0.53,2.24c-0.35,0.65-0.84,1.16-1.47,1.53s-1.35,0.55-2.15,0.56c-0.85,0-1.58-0.19-2.21-0.56
				c-0.63-0.38-1.11-0.89-1.44-1.53c-0.34-0.65-0.5-1.36-0.5-2.15c0-0.83,0.18-1.57,0.53-2.23c0.35-0.65,0.84-1.17,1.47-1.54
				C104.76,14.34,105.48,14.15,106.29,14.14z M104.1,18.46c0,0.79,0.2,1.43,0.59,1.93c0.39,0.5,0.92,0.74,1.59,0.74
				c0.41,0,0.78-0.1,1.12-0.31c0.33-0.21,0.6-0.51,0.79-0.93c0.19-0.41,0.29-0.92,0.29-1.51c0-0.51-0.09-0.96-0.27-1.37
				c-0.18-0.4-0.43-0.72-0.76-0.95c-0.33-0.23-0.71-0.34-1.14-0.34c-0.4,0-0.77,0.11-1.11,0.34c-0.34,0.23-0.6,0.55-0.8,0.96
				C104.2,17.44,104.1,17.92,104.1,18.46z"/>
			<path class="st1" d="M114.06,22.55v-8.23h1.81l3.48,4.97v-4.97h1.89v8.23h-1.81l-3.48-4.91v4.91H114.06z"/>
			<path class="st1" d="M131.68,15.81h-2.72v6.74h-1.9v-6.74h-2.46v-1.49h6.85L131.68,15.81z"/>
			<path class="st1" d="M138.61,14.32l3.12,8.13l-1.86,0.22l-0.67-1.9h-2.99l-0.64,1.78h-1.89l3.15-8.23H138.61z M137.67,16.72
				l-0.93,2.55h1.9L137.67,16.72z"/>
			<path class="st1" d="M145.08,14.32h3.04c0.97,0,1.76,0.22,2.38,0.67c0.62,0.45,0.93,1.12,0.93,2c0,0.48-0.11,0.91-0.34,1.28
				c-0.23,0.37-0.53,0.67-0.92,0.88l1.92,3.39h-2.12l-1.54-2.86h-1.48v2.86h-1.89V14.32z M148.06,15.85h-1.09v2.35h1.11
				c0.41,0,0.74-0.1,1-0.31c0.25-0.21,0.38-0.49,0.38-0.85c0-0.4-0.12-0.7-0.36-0.9C148.86,15.94,148.51,15.85,148.06,15.85z"/>
			<path class="st1" d="M155.45,22.55v-8.23h1.89v8.23H155.45z"/>
			<path class="st1" d="M165.12,14.14c0.86,0,1.6,0.19,2.22,0.56c0.63,0.37,1.1,0.89,1.43,1.53c0.33,0.65,0.5,1.36,0.5,2.15
				c0,0.84-0.18,1.59-0.53,2.24c-0.35,0.65-0.84,1.16-1.47,1.53c-0.63,0.37-1.35,0.55-2.15,0.56c-0.85,0-1.58-0.19-2.21-0.56
				c-0.63-0.38-1.11-0.89-1.44-1.53c-0.34-0.65-0.5-1.36-0.5-2.15c0-0.83,0.18-1.57,0.53-2.23c0.35-0.65,0.84-1.17,1.47-1.54
				C163.59,14.34,164.31,14.15,165.12,14.14z M162.93,18.46c0,0.79,0.2,1.43,0.59,1.93c0.39,0.5,0.92,0.74,1.59,0.74
				c0.41,0,0.78-0.1,1.12-0.31c0.33-0.21,0.6-0.51,0.79-0.93c0.19-0.41,0.29-0.92,0.29-1.51c0-0.51-0.09-0.96-0.27-1.37
				c-0.18-0.4-0.43-0.72-0.76-0.95c-0.33-0.23-0.71-0.34-1.14-0.34c-0.4,0-0.77,0.11-1.11,0.34c-0.34,0.23-0.6,0.55-0.8,0.96
				C163.03,17.44,162.93,17.92,162.93,18.46z"/>
			<path class="st1" d="M184.02,15.81h-2.72v6.74h-1.9v-6.74h-2.46v-1.49h6.85L184.02,15.81z"/>
			<path class="st1" d="M187.37,22.55v-8.23h5.19l0.23,1.49h-3.53v1.85h2.61l0.23,1.49h-2.84v1.92h3.79l0.23,1.48H187.37z"/>
			<path class="st1" d="M202.54,14.77l-0.57,1.31c-0.44-0.14-0.76-0.23-0.97-0.28c-0.21-0.05-0.47-0.07-0.77-0.07
				c-0.38,0-0.73,0.11-1.06,0.34c-0.33,0.23-0.59,0.55-0.78,0.96c-0.19,0.42-0.29,0.89-0.29,1.43c0,0.52,0.09,0.98,0.28,1.39
				c0.19,0.41,0.44,0.73,0.76,0.96c0.32,0.23,0.69,0.34,1.09,0.34c0.57,0,1.13-0.14,1.68-0.41l0.71,1.4
				c-0.31,0.18-0.68,0.32-1.13,0.42c-0.45,0.1-0.87,0.15-1.25,0.15c-0.86,0-1.59-0.18-2.21-0.54c-0.62-0.36-1.09-0.87-1.41-1.51
				c-0.32-0.64-0.48-1.37-0.48-2.18c0-0.83,0.17-1.57,0.52-2.23c0.35-0.65,0.83-1.16,1.45-1.53c0.62-0.37,1.33-0.55,2.13-0.55
				c0.35,0,0.75,0.05,1.17,0.16C201.84,14.43,202.22,14.58,202.54,14.77z"/>
			<path class="st1" d="M210.95,22.55V19.2h-3.06v3.35H206v-8.23l1.89-0.07v3.45h3.06v-3.38h1.89v8.23H210.95z"/>
		</g>
	</g>
</g>
</svg>
